<svg version="1.1" id="Layer_1" xmlns="http://www.w3.org/2000/svg" xmlns:xlink="http://www.w3.org/1999/xlink" x="0px" y="0px"
	 width="100%" viewBox="0 0 784 800" enable-background="new 0 0 784 800" xml:space="preserve">
<path fill="#000000" opacity="1.000000" stroke="none" 
	d="
M578.530518,152.406403 
	C590.036438,160.720520 602.624939,166.654663 613.678650,175.042023 
	C622.309692,181.591064 630.635925,188.450958 638.473572,195.918503 
	C645.706116,202.809509 653.291504,209.368347 660.113770,216.643402 
	C672.373962,229.717178 686.239990,241.329758 696.993103,255.744125 
	C703.264832,264.151306 708.606506,273.430817 708.024841,284.535187 
	C707.434326,295.807007 710.754272,306.579803 711.687195,317.675262 
	C713.651550,341.037109 717.564148,364.231476 719.691650,387.584381 
	C721.349609,405.783325 716.369812,423.264191 711.195190,440.567261 
	C707.696777,452.265594 701.609375,462.424011 693.879272,471.786621 
	C690.507019,475.871002 687.665833,480.411469 685.650330,485.414886 
	C682.279663,493.782928 676.701721,500.935669 672.480469,508.843994 
	C671.542908,510.600372 670.185303,512.189209 669.828491,514.168701 
	C667.599854,526.531433 662.627930,538.045593 658.983215,549.968811 
	C657.687134,554.208496 657.622742,558.821777 656.964661,563.259888 
	C656.016541,569.653809 653.256226,574.606201 646.515808,576.443054 
	C643.463501,577.274841 641.661560,579.891785 639.362183,581.768433 
	C623.799927,594.469604 611.322754,610.018066 598.466919,625.309998 
	C588.257263,637.454407 577.228394,648.659790 561.958862,655.438660 
	C548.463806,661.429810 534.447327,667.511230 524.772705,679.760864 
	C523.961060,680.788513 522.933350,681.826904 521.775940,682.371582 
	C511.467712,687.223083 503.507690,695.751343 493.316559,700.683105 
	C482.503784,705.915710 471.401398,710.483398 458.996307,710.187500 
	C453.998932,710.068237 448.997009,710.142761 443.999329,710.031433 
	C433.082977,709.788208 426.331970,704.682190 422.928986,694.309265 
	C420.645142,687.347778 417.730316,680.869446 409.796173,678.581909 
	C409.187653,678.406433 408.538513,677.980774 408.152679,677.482239 
	C401.619110,669.040039 392.210022,666.010193 382.457367,663.241699 
	C374.057709,660.857300 367.388458,655.579102 362.146393,648.580750 
	C347.763824,629.379395 329.064545,614.943909 309.741913,601.219910 
	C306.702026,599.060791 304.164551,596.552856 301.901031,593.621338 
	C291.447479,580.082947 278.835876,568.771667 265.232513,558.519531 
	C262.426361,556.404663 259.304840,554.623291 255.874725,553.881775 
	C247.347076,552.038391 240.150803,546.944641 231.837845,544.419617 
	C226.837936,542.901001 223.270538,537.951233 218.927551,534.708801 
	C213.628311,530.752441 208.816208,526.097168 203.028381,522.760803 
	C199.222107,520.566589 195.786392,518.045715 193.460052,514.206421 
	C191.709213,511.316803 188.401184,510.469086 185.763824,508.828461 
	C183.200516,507.233887 182.342041,505.385406 181.896164,502.464569 
	C178.496063,480.191528 173.126282,458.705109 156.499756,441.923676 
	C152.526962,437.913818 149.170212,433.318665 144.556473,429.913208 
	C139.817062,426.415039 138.198425,421.147095 136.972321,415.695038 
	C131.339951,390.650055 129.825623,365.269867 131.134140,339.714600 
	C131.403564,334.452728 132.961914,329.243256 134.073532,324.041138 
	C135.924805,315.377502 134.701996,306.799377 133.567032,298.208282 
	C133.414444,297.053253 132.949066,295.851166 133.130539,294.753845 
	C135.317535,281.529480 136.937897,268.105988 145.448242,256.934784 
	C146.152237,256.010651 146.994034,255.100311 147.382431,254.040833 
	C152.003769,241.434784 161.533417,234.216019 173.805328,230.205780 
	C177.806732,228.898224 180.624924,226.139084 183.634125,223.607742 
	C188.170868,219.791397 194.184067,218.853836 198.849121,215.251694 
	C204.658493,210.765991 209.735046,205.726395 213.960480,199.687622 
	C221.263214,189.250946 227.050186,177.419174 237.416260,169.608063 
	C244.913803,163.958466 252.677231,157.979996 262.047791,155.754471 
	C273.427948,153.051697 282.783813,147.013824 291.506866,139.755844 
	C294.373444,137.370728 297.637054,136.315704 300.956329,135.513474 
	C311.501770,132.964706 320.530914,126.243248 331.475342,124.790550 
	C341.515656,123.457863 351.393097,122.996971 360.804230,127.657555 
	C365.031952,129.751190 368.968109,128.323471 372.794312,126.587997 
	C377.263336,124.560966 381.716125,123.436691 386.776489,123.773582 
	C393.544769,124.224190 399.724182,120.950905 406.163116,119.357719 
	C424.428436,114.838333 441.980103,117.302338 459.763153,122.618660 
	C471.302368,126.068352 483.349518,128.470413 495.509705,128.976166 
	C504.533569,129.351486 512.983459,131.212311 520.763000,135.805405 
	C523.598755,137.479645 526.604065,137.991409 529.846313,138.022476 
	C547.298401,138.189728 562.990845,144.442184 578.530518,152.406403 
M301.768158,366.137512 
	C301.601410,372.403870 303.671722,374.696472 309.777924,374.803314 
	C314.107300,374.879089 318.446472,374.957458 322.768127,374.754883 
	C327.246399,374.544983 329.008606,376.569275 329.265076,380.919617 
	C329.744110,389.045441 330.572998,397.150482 331.247406,405.264954 
	C333.616058,433.764465 336.157013,462.251221 338.277588,490.769226 
	C339.444122,506.457275 349.096100,515.233765 363.456451,514.897827 
	C391.757538,514.235657 420.086060,514.757996 448.403229,514.748291 
	C450.548523,514.747559 452.817047,514.794250 454.811249,514.148499 
	C458.186951,513.055481 460.846893,510.725067 460.394867,506.846130 
	C459.974518,503.238617 457.177917,501.561432 453.707153,501.208893 
	C451.724854,501.007507 449.717041,501.001678 447.720734,501.001923 
	C421.902161,501.005310 396.083557,501.025604 370.264984,501.041840 
	C366.069885,501.044495 361.906647,500.775513 358.174286,498.607635 
	C354.556305,496.506165 351.346100,488.118591 352.981476,483.964508 
	C354.688965,479.627380 358.822388,481.815948 361.763123,481.792969 
	C387.413666,481.592163 413.066467,481.695648 438.718384,481.632111 
	C449.183380,481.606171 455.775879,476.774780 458.592316,466.784760 
	C465.497742,442.290527 472.254425,417.754211 479.016907,393.219910 
	C480.505890,387.817749 479.639435,386.734528 474.008698,386.432800 
	C472.347351,386.343750 470.678101,386.394836 469.012451,386.394623 
	C429.701538,386.389313 390.390320,386.308685 351.080139,386.476105 
	C345.963928,386.497894 343.815094,385.343384 343.422394,379.715271 
	C342.515167,366.711670 336.281616,361.404602 323.330078,361.344360 
	C318.666168,361.322693 314.001678,361.370728 309.338318,361.314148 
	C306.064880,361.274475 303.449127,362.271149 301.768158,366.137512 
M414.995880,315.369141 
	C411.548218,318.064728 409.742004,314.924805 407.947937,313.088928 
	C400.379608,305.344330 393.374939,297.008972 385.440277,289.672607 
	C376.173401,281.104431 370.776520,271.611755 372.623322,258.512177 
	C373.384003,253.116425 372.320282,252.643112 366.940552,254.170517 
	C352.209808,258.352814 337.506927,262.634064 322.812042,266.941101 
	C313.664612,269.622162 304.508728,272.330322 298.413208,280.530914 
	C282.912994,301.384003 267.232117,322.105835 251.981339,343.139648 
	C246.487366,350.716949 247.012421,353.448090 253.320099,360.231598 
	C266.254089,374.141266 279.327393,387.921570 292.377899,401.722443 
	C293.600555,403.015411 294.699341,404.578064 296.664093,404.962097 
	C298.529510,404.164917 299.172668,402.332855 300.213379,400.875793 
	C304.664001,394.644592 304.656097,394.626831 299.393982,388.934967 
	C288.989746,377.680847 278.647461,366.368042 268.120544,355.229736 
	C265.233582,352.175110 265.465424,349.828247 267.899536,346.613708 
	C278.356689,332.803802 289.468445,319.377960 298.666382,304.758179 
	C307.456482,290.786591 318.870178,282.225342 334.953339,279.355865 
	C338.691284,278.688965 342.252228,277.067139 345.926483,275.993835 
	C348.753082,275.168152 351.542358,274.042358 354.984863,274.147736 
	C355.581787,279.746246 359.186035,283.479492 362.722809,287.245605 
	C375.040894,300.362396 387.385986,313.453949 399.689240,326.584686 
	C407.708282,335.143066 416.555176,335.568665 424.947632,327.333344 
	C433.625671,318.817749 442.220856,310.199371 450.480865,301.281952 
	C457.250031,293.973999 465.333557,287.708221 470.075623,278.730530 
	C471.720642,275.616241 473.316498,275.137512 476.344879,276.085999 
	C485.241028,278.872253 494.235962,281.346985 503.107147,284.207550 
	C508.115723,285.822601 513.303345,287.071381 516.811279,291.793518 
	C530.719116,310.515320 544.780579,329.123291 558.854309,347.721039 
	C560.522461,349.925354 560.776001,351.382416 558.660217,353.667725 
	C548.364197,364.789154 538.249023,376.079895 528.168274,387.398315 
	C520.955383,395.496704 521.019897,395.562866 528.276001,403.510254 
	C528.808594,404.093597 529.482178,404.548218 530.261108,405.207275 
	C531.809509,403.850342 533.277222,402.759186 534.514282,401.450104 
	C547.443481,387.767639 560.382874,374.094238 573.218811,360.324524 
	C579.944519,353.109558 580.035339,350.930206 574.729736,342.470062 
	C574.111267,341.483795 573.418213,340.540649 572.714355,339.612000 
	C558.725220,321.156555 544.605591,302.798218 530.793396,284.211426 
	C524.920410,276.308258 517.299255,271.627625 507.938995,269.194489 
	C499.724854,267.059357 491.581390,264.648560 483.424011,262.299469 
	C474.946259,259.858093 466.465240,257.422638 458.034851,254.824829 
	C454.626740,253.774628 452.868500,254.713211 452.718079,258.294556 
	C452.564423,261.953613 452.199554,265.638245 452.467865,269.271790 
	C452.802094,273.798676 451.183044,277.330353 448.248810,280.547668 
	C437.584473,292.240906 427.020050,304.027679 414.995880,315.369141 
M499.047302,528.537354 
	C508.886322,513.995850 514.809875,497.892670 515.437805,480.444885 
	C516.204407,459.141937 515.774475,437.791290 515.633301,416.462769 
	C515.581787,408.686066 510.149139,401.841125 502.702332,399.221252 
	C500.759308,401.266876 501.294342,403.874786 501.289215,406.286560 
	C501.236816,430.949371 501.368256,455.613129 501.205963,480.275024 
	C500.961334,517.452454 473.538422,550.969849 437.241577,559.288086 
	C412.724548,564.906616 388.188080,565.060120 363.307800,560.872437 
	C399.732727,582.088501 465.223145,577.877197 499.047302,528.537354 
M437.129669,267.786163 
	C438.302734,263.677429 435.593933,264.036530 433.218628,264.630096 
	C419.741364,267.997925 406.274414,268.440247 392.768829,264.860657 
	C388.517792,263.733917 388.195282,265.969208 389.036896,269.229034 
	C390.933289,276.574097 397.878998,282.175079 405.865051,282.591431 
	C409.350677,282.773193 412.852661,282.683044 416.346680,282.654572 
	C426.876862,282.568878 432.953918,278.361267 437.129669,267.786163 
M534.322327,328.151947 
	C526.639587,318.118195 518.937622,308.099030 511.293640,298.035858 
	C510.060425,296.412384 508.836334,294.956635 506.764008,294.361572 
	C499.102051,292.161469 491.461792,289.885712 483.805359,287.666168 
	C482.196075,287.199615 480.432739,286.690765 479.202026,288.314423 
	C474.935944,293.942352 470.752716,299.633057 466.537964,305.299835 
	C471.423553,303.719818 473.967926,299.788361 476.963104,296.399353 
	C479.474152,293.558044 482.052368,292.728699 485.763855,294.032959 
	C491.396942,296.012543 497.140900,297.781647 502.961731,299.087524 
	C507.354095,300.072937 510.222778,302.455811 512.826904,305.953369 
	C524.508667,321.642792 536.824341,336.854797 547.963379,352.946594 
	C551.316345,351.043945 549.973389,349.124023 548.470093,347.117065 
	C543.884705,340.995117 539.337524,334.844452 534.322327,328.151947 
M367.904816,525.608337 
	C361.736420,525.416260 357.802612,528.032959 357.185791,532.738281 
	C356.534058,537.709961 359.301422,541.809570 363.951111,542.760559 
	C368.943970,543.781738 373.364502,541.220032 374.834747,536.453491 
	C376.303802,531.690735 374.251709,528.176392 367.904816,525.608337 
M446.244354,526.109375 
	C439.986481,524.638611 435.830048,526.475647 434.085236,531.483521 
	C432.679413,535.518433 434.931274,540.422424 439.006836,542.201782 
	C443.220917,544.041626 448.453552,542.282959 450.692963,538.274048 
	C453.047760,534.058472 451.720093,529.846375 446.244354,526.109375 
z"/>
<path fill="#000000" opacity="1.000000" stroke="none" 
	d="
M376.999939,415.411560 
	C368.177399,415.412811 359.854401,415.464630 351.532501,415.392853 
	C346.895111,415.352844 345.718231,413.029327 345.642792,405.698212 
	C345.595337,401.088623 348.708466,401.735992 351.442047,401.734711 
	C386.230286,401.718536 421.018555,401.725616 455.806732,401.769287 
	C461.297241,401.776184 461.808533,402.609161 460.216461,408.099731 
	C458.100647,415.396729 458.100586,415.409637 450.405579,415.411346 
	C426.103699,415.416748 401.801819,415.411560 376.999939,415.411560 
z"/>
<path fill="#000000" opacity="1.000000" stroke="none" 
	d="
M406.000000,427.798218 
	C420.332733,427.809296 434.165527,427.796448 447.998138,427.842773 
	C453.870911,427.862457 454.171326,428.662720 452.706604,434.308136 
	C451.316833,439.664795 448.611481,441.594543 442.861084,441.534912 
	C413.698883,441.232330 384.531708,441.426208 355.366425,441.368805 
	C353.205688,441.364563 350.221497,442.404480 349.300354,439.384460 
	C348.284851,436.055023 347.826752,432.397217 349.014252,429.074402 
	C349.715332,427.112701 352.240875,427.825806 354.002228,427.821838 
	C371.168091,427.783234 388.334045,427.798401 406.000000,427.798218 
z"/>
<path fill="#000000" opacity="1.000000" stroke="none" 
	d="
M351.743347,464.180786 
	C349.762634,451.725555 350.756714,453.719360 360.373962,453.688934 
	C386.855804,453.605194 413.338043,453.650177 439.820129,453.644318 
	C441.782928,453.643860 443.745728,453.644287 445.867615,453.644287 
	C446.709351,458.004425 445.043640,461.345093 443.782501,464.654663 
	C442.891754,466.992279 440.425720,466.397247 438.491547,466.400146 
	C419.004791,466.429260 399.517914,466.421509 380.031097,466.422394 
	C372.379761,466.422760 364.727844,466.469299 357.077515,466.380371 
	C355.214478,466.358704 352.944183,467.090790 351.743347,464.180786 
z"/>
</svg>